<svg width="18" height="20" viewBox="0 0 18 20" fill="none" xmlns="http://www.w3.org/2000/svg">
<path d="M4.94582 9.32545L1.7752 3.65173C1.41062 2.99934 1.22834 2.67315 1.25906 2.40607C1.28586 2.17306 1.40962 1.96213 1.59995 1.82507C1.8181 1.66797 2.19177 1.66797 2.93912 1.66797H4.80147C5.07922 1.66797 5.21809 1.66797 5.34265 1.70808C5.45288 1.74357 5.55449 1.80165 5.64102 1.8786C5.73881 1.96557 5.8093 2.08522 5.95028 2.32453L8.99995 7.5013L12.0496 2.32453C12.1906 2.08522 12.2611 1.96557 12.3589 1.8786C12.4454 1.80165 12.547 1.74357 12.6572 1.70808C12.7818 1.66797 12.9207 1.66797 13.1984 1.66797H15.0608C15.8081 1.66797 16.1818 1.66797 16.4 1.82507C16.5903 1.96213 16.714 2.17306 16.7408 2.40607C16.7716 2.67315 16.5893 2.99934 16.2247 3.65173L13.0541 9.32545M7.74995 11.668L8.99995 10.8346V15.0013M7.95828 15.0013H10.0416M12.8301 9.0878C14.9455 11.2031 14.9455 14.6328 12.8301 16.7481C10.7148 18.8635 7.28513 18.8635 5.16978 16.7481C3.05445 14.6328 3.05445 11.2032 5.16978 9.0878C7.28512 6.97247 10.7148 6.97247 12.8301 9.0878Z" stroke="#9395B8" stroke-width="1.5" stroke-linecap="round" stroke-linejoin="round"/>
</svg>
