<svg width="14" height="16" viewBox="0 0 14 16" fill="none" xmlns="http://www.w3.org/2000/svg">
<path d="M13.0002 6.66671H1.00021M9.66688 1.33337V4.00004M4.33355 1.33337V4.00004M4.20021 14.6667H9.80021C10.9203 14.6667 11.4804 14.6667 11.9082 14.4487C12.2845 14.257 12.5905 13.951 12.7822 13.5747C13.0002 13.1469 13.0002 12.5868 13.0002 11.4667V5.86671C13.0002 4.7466 13.0002 4.18655 12.7822 3.75873C12.5905 3.3824 12.2845 3.07644 11.9082 2.88469C11.4804 2.66671 10.9203 2.66671 9.80021 2.66671H4.20021C3.08011 2.66671 2.52006 2.66671 2.09223 2.88469C1.71591 3.07644 1.40995 3.3824 1.2182 3.75873C1.00021 4.18655 1.00021 4.7466 1.00021 5.86671V11.4667C1.00021 12.5868 1.00021 13.1469 1.2182 13.5747C1.40995 13.951 1.71591 14.257 2.09223 14.4487C2.52006 14.6667 3.08011 14.6667 4.20021 14.6667Z" stroke="#9395B8" stroke-width="1.28" stroke-linecap="round" stroke-linejoin="round"/>
</svg>
