<svg width="20" height="14" viewBox="0 0 20 14" fill="none" xmlns="http://www.w3.org/2000/svg">
<path d="M18.3333 4.44411C18.3333 3.93926 18.3333 3.68684 18.2335 3.56995C18.1468 3.46853 18.0169 3.41471 17.8839 3.42518C17.7307 3.43724 17.5522 3.61573 17.1952 3.97271L14.1666 7.0013L17.1952 10.0299C17.5522 10.3869 17.7307 10.5654 17.8839 10.5774C18.0169 10.5879 18.1468 10.5341 18.2335 10.4327C18.3333 10.3158 18.3333 10.0633 18.3333 9.55849V4.44411Z" stroke="#9395B8" stroke-width="1.5" stroke-linecap="round" stroke-linejoin="round"/>
<path d="M1.66663 5.16797C1.66663 3.76784 1.66663 3.06777 1.93911 2.53299C2.17879 2.06259 2.56124 1.68014 3.03165 1.44045C3.56643 1.16797 4.26649 1.16797 5.66663 1.16797H10.1666C11.5668 1.16797 12.2668 1.16797 12.8016 1.44045C13.272 1.68014 13.6545 2.06259 13.8941 2.53299C14.1666 3.06777 14.1666 3.76784 14.1666 5.16797V8.83464C14.1666 10.2348 14.1666 10.9348 13.8941 11.4696C13.6545 11.94 13.272 12.3225 12.8016 12.5622C12.2668 12.8346 11.5668 12.8346 10.1666 12.8346H5.66663C4.26649 12.8346 3.56643 12.8346 3.03165 12.5622C2.56124 12.3225 2.17879 11.94 1.93911 11.4696C1.66663 10.9348 1.66663 10.2348 1.66663 8.83464V5.16797Z" stroke="#9395B8" stroke-width="1.5" stroke-linecap="round" stroke-linejoin="round"/>
</svg>
